<svg width="19" height="24" fill="none" xmlns="http://www.w3.org/2000/svg"><path d="M18.608 19.1c-.07-.046-.602-.418-1.134-1.544-.977-2.066-1.182-4.977-1.182-7.055v-.027a6.81 6.81 0 00-4.01-6.176V2.674A2.675 2.675 0 009.61 0h-.222A2.674 2.674 0 006.72 2.674v1.624a6.81 6.81 0 00-4.011 6.203c0 2.078-.205 4.989-1.182 7.055C.994 18.682.463 19.053.392 19.1a.683.683 0 00-.375.778c.069.325.373.55.705.55h5.156A3.629 3.629 0 009.5 24a3.629 3.629 0 003.622-3.574h5.156a.716.716 0 00.705-.55.683.683 0 00-.375-.777zM8.126 2.673c0-.698.567-1.265 1.263-1.265h.222c.696 0 1.263.567 1.263 1.265v1.168a6.786 6.786 0 00-2.748 0V2.673zM9.5 22.592a2.22 2.22 0 01-2.215-2.166h4.43A2.22 2.22 0 019.5 22.592zm2.833-3.574H2.325a7.37 7.37 0 00.369-.647c.943-1.858 1.42-4.506 1.42-7.87A5.394 5.394 0 019.5 5.111a5.394 5.394 0 015.385 5.393v.025c.003 3.35.48 5.989 1.421 7.842.123.243.247.457.369.647h-4.342z" fill="#053694"/></svg>