<svg width="55" height="55" fill="none" xmlns="http://www.w3.org/2000/svg"><circle cx="27.5" cy="27.5" r="16.5" fill="#053694"/><path d="M34.501 23.265a1.613 1.613 0 00-1.183-.499H30.95v-.028a1.28 1.28 0 00-.385-.927 1.305 1.305 0 00-.927-.385H25.36a1.313 1.313 0 00-1.326 1.312v.028h-2.352a1.61 1.61 0 00-1.184.5 1.69 1.69 0 00-.499 1.183v7.1c0 .47.185.884.499 1.184.3.3.727.499 1.184.499h11.635c.47 0 .884-.185 1.183-.5.3-.299.499-.726.499-1.183v-7.1c0-.47-.185-.884-.499-1.184zm-.242 8.284h-.015c0 .257-.1.485-.27.656a.915.915 0 01-.656.271H21.683a.915.915 0 01-.656-.27.916.916 0 01-.271-.657v-7.1a.92.92 0 01.927-.927h2.751a.383.383 0 00.385-.385v-.414c0-.156.057-.3.157-.399a.56.56 0 01.4-.157h4.263c.157 0 .3.057.399.157.1.1.157.242.157.4v.413c0 .214.171.385.385.385h2.752a.922.922 0 01.926.927v7.1z" fill="#fff"/><path d="M27.5 24.49c-.97 0-1.854.4-2.481 1.027a3.514 3.514 0 000 4.962 3.514 3.514 0 004.962 0 3.513 3.513 0 000-4.962A3.514 3.514 0 0027.5 24.49zm1.939 5.461c-.5.485-1.183.799-1.94.799-.755 0-1.44-.314-1.938-.799a2.726 2.726 0 01-.799-1.939c0-.756.314-1.44.799-1.94a2.726 2.726 0 011.939-.797c.756 0 1.44.313 1.939.798.499.499.798 1.183.798 1.94a2.662 2.662 0 01-.798 1.938zm3.139-4.077a.699.699 0 100-1.397.699.699 0 000 1.397z" fill="#fff"/><circle opacity=".1" cx="27.5" cy="27.5" r="27.5" fill="#053694"/></svg>