<svg width="31" height="31" fill="none" xmlns="http://www.w3.org/2000/svg"><circle cx="15.5" cy="15.5" r="15.5" fill="#053694"/><path d="M21.773 8.227a4.2 4.2 0 00-5.934 0L9.59 14.475a.494.494 0 10.698.698l6.248-6.248c1.213-1.212 3.326-1.212 4.539 0a3.212 3.212 0 010 4.538l-8.725 8.823c-.746.746-2.046.746-2.793 0a1.976 1.976 0 010-2.792l8.376-8.475a.758.758 0 011.047 0 .742.742 0 010 1.048l-8.026 8.125c-.167.166-.167.531 0 .698a.493.493 0 00.698 0l8.026-8.125a1.73 1.73 0 000-2.444c-.652-.652-1.791-.651-2.443 0L8.86 18.796a2.981 2.981 0 000 4.188c.56.56 1.304.861 2.095.861.791 0 1.535-.301 2.094-.861l8.725-8.823a4.2 4.2 0 000-5.934z" fill="#fff"/></svg>