<svg width="52" height="42" fill="none" xmlns="http://www.w3.org/2000/svg"><path d="M37.405 0H2.897A2.9 2.9 0 000 2.897V23.6a2.9 2.9 0 002.897 2.896h2.237v7.707a1.214 1.214 0 002.072.858l8.565-8.565h1.719a1.213 1.213 0 100-2.427s-2.28.002-2.304.004c-.282.02-.56.136-.776.352l-6.849 6.849s-.002-6.068-.006-6.1a1.213 1.213 0 00-1.208-1.105h-3.45a.47.47 0 01-.47-.47V2.898c0-.26.21-.47.47-.47h34.508c.259 0 .47.21.47.47v7.942a1.214 1.214 0 002.426 0V2.897A2.9 2.9 0 0037.405 0z" fill="#7E7E7E"/><path d="M48.544 14.843H24.389a2.9 2.9 0 00-2.897 2.896v14.124a2.9 2.9 0 002.897 2.897H39.51l6.127 6.126a1.213 1.213 0 002.072-.858V34.76h.834a2.9 2.9 0 002.897-2.896V17.739a2.9 2.9 0 00-2.897-2.896zm.47 17.02a.47.47 0 01-.47.47h-2.047c-.639 0-1.161.493-1.209 1.12-.003.026-.005 3.645-.005 3.645l-4.406-4.406-.014-.013a1.208 1.208 0 00-.848-.347H24.389a.47.47 0 01-.47-.47V17.74a.47.47 0 01.47-.47h24.155c.259 0 .47.212.47.47v14.124z" fill="#7E7E7E"/><path d="M36.467 23.588a1.214 1.214 0 10.001 2.428 1.214 1.214 0 000-2.428zM31.194 8.023H9.108a1.213 1.213 0 100 2.427h22.086a1.213 1.213 0 100-2.427zM17.49 16.046H9.108a1.214 1.214 0 000 2.427h8.382a1.213 1.213 0 100-2.427zm13.34 7.542a1.214 1.214 0 10.002 2.428 1.214 1.214 0 00-.001-2.428zm11.274 0a1.214 1.214 0 10.001 2.428 1.214 1.214 0 000-2.428z" fill="#7E7E7E"/></svg>