<svg width="36" height="19" fill="none" xmlns="http://www.w3.org/2000/svg"><path d="M35.232 16.947c-.094-.15-.676-1.353-3.476-3.826-2.932-2.589-2.538-2.169.993-6.646 2.15-2.726 3.01-4.391 2.741-5.103-.256-.679-1.837-.5-1.837-.5l-5.26.03s-.389-.05-.68.114c-.282.162-.464.537-.464.537s-.833 2.11-1.945 3.905c-2.343 3.786-3.281 3.985-3.664 3.75-.89-.547-.667-2.202-.667-3.376 0-3.67.584-5.2-1.14-5.595-.573-.13-.993-.218-2.457-.233C15.5-.014 13.91.011 13.01.43c-.6.279-1.061.901-.78.937.349.043 1.136.201 1.554.743.54.697.52 2.266.52 2.266s.312 4.32-.723 4.856c-.711.369-1.685-.383-3.774-3.82-1.07-1.758-1.88-3.704-1.88-3.704s-.155-.362-.432-.556c-.337-.235-.81-.31-.81-.31l-5 .03S.933.89.657 1.2c-.245.277-.02.847-.02.847s3.916 8.715 8.349 13.109c4.066 4.027 8.682 3.763 8.682 3.763h2.092s.632-.067.954-.398c.297-.303.286-.874.286-.874s-.041-2.67 1.262-3.064c1.285-.387 2.934 2.581 4.682 3.724 1.322.864 2.326.674 2.326.674l4.675-.062s2.445-.144 1.286-1.973z" fill="#000"/></svg>