<svg width="12" height="19" fill="none" xmlns="http://www.w3.org/2000/svg"><path d="M4.769 13.383c-1.473-.154-2.8-.516-3.938-1.406-.14-.11-.287-.217-.415-.34-.498-.479-.548-1.026-.154-1.59.337-.483.902-.612 1.49-.335.114.054.222.121.326.193 2.119 1.456 5.03 1.496 7.157.066a1.94 1.94 0 01.697-.36c.507-.131.98.055 1.253.5.311.506.307 1.002-.076 1.395-.588.604-1.296 1.04-2.082 1.346-.743.288-1.557.433-2.363.53.122.132.18.197.255.273 1.094 1.1 2.193 2.194 3.284 3.296.371.376.449.842.244 1.279-.223.477-.724.791-1.215.758-.311-.022-.554-.176-.77-.393-.825-.831-1.666-1.647-2.475-2.493-.235-.246-.348-.2-.556.014a165.64 165.64 0 01-2.524 2.534c-.38.376-.835.444-1.277.229-.47-.228-.769-.708-.746-1.19.016-.326.177-.575.4-.799 1.083-1.08 2.163-2.165 3.243-3.247.071-.072.138-.149.242-.26z" fill="#000"/><path d="M5.666 9.617C3.04 9.607.884 7.429.9 4.797A4.816 4.816 0 015.724 0c2.659.007 4.793 2.182 4.78 4.87-.014 2.627-2.184 4.756-4.838 4.747zm2.388-4.813a2.342 2.342 0 00-2.35-2.348A2.345 2.345 0 003.35 4.832a2.342 2.342 0 002.367 2.33 2.337 2.337 0 002.337-2.358z" fill="#000"/></svg>