<svg width="140" height="55" fill="none" xmlns="http://www.w3.org/2000/svg"><path d="M23.842 10.988L11.922 0 0 10.988l11.921 10.988 11.921-10.988z" fill="#A086BE"/><path d="M23.844 21.977l-11.92-10.988L.001 21.977l11.921 10.988 11.921-10.988z" fill="#97C45D"/><path d="M23.847 32.965L11.926 21.977.005 32.965l11.92 10.988 11.922-10.988z" fill="#FCB13B"/><path d="M23.847 44.012L11.926 33.024.005 44.012 11.925 55l11.922-10.988z" fill="#A32529"/><path d="M17.863 38.483l-5.931-5.467L6 38.483l5.93 5.467 5.932-5.467z" fill="#CE2027"/><path d="M17.885 27.457l-5.96-5.494-5.96 5.494 5.96 5.494 5.96-5.494z" fill="#EFD43C"/><path d="M17.86 16.446l-5.932-5.467-5.93 5.467 5.93 5.467 5.931-5.467z" fill="#88B8C0"/><g clip-path="url(#clip0)"><path d="M61.728 20.233h-7.52v18.933h-5.371V20.233H41.35v-4.4h20.378v4.4zm13.588-4.4c2.081 0 3.883.344 5.405 1.033 1.544.69 2.73 1.667 3.559 2.934.828 1.266 1.242 2.766 1.242 4.5 0 1.71-.414 3.21-1.242 4.5-.828 1.266-2.015 2.244-3.559 2.933-1.522.667-3.324 1-5.405 1h-4.734v6.433h-5.438V15.833h10.172zm-.302 12.5c1.634 0 2.876-.344 3.726-1.033.85-.711 1.276-1.711 1.276-3 0-1.311-.425-2.311-1.276-3-.85-.711-2.092-1.067-3.726-1.067h-4.432v8.1h4.432zm25.637 11.233c-2.44 0-4.644-.522-6.614-1.566-1.947-1.045-3.48-2.478-4.6-4.3-1.096-1.845-1.644-3.911-1.644-6.2 0-2.29.548-4.345 1.645-6.167 1.119-1.844 2.652-3.289 4.599-4.333 1.97-1.045 4.174-1.567 6.614-1.567 2.439 0 4.633.522 6.58 1.567 1.947 1.044 3.48 2.489 4.599 4.333 1.119 1.822 1.679 3.878 1.679 6.167 0 2.289-.56 4.355-1.679 6.2-1.119 1.822-2.652 3.255-4.599 4.3-1.947 1.044-4.141 1.566-6.58 1.566zm0-4.6c1.387 0 2.641-.31 3.76-.933a6.834 6.834 0 002.618-2.667c.65-1.133.974-2.422.974-3.866 0-1.445-.324-2.734-.974-3.867A6.607 6.607 0 00104.411 21c-1.119-.645-2.373-.967-3.76-.967-1.388 0-2.641.322-3.76.967a6.84 6.84 0 00-2.653 2.633c-.626 1.133-.94 2.422-.94 3.867 0 1.444.314 2.733.94 3.866a7.08 7.08 0 002.653 2.667c1.119.622 2.372.933 3.76.933zm38.601-19.133v23.333h-5.439V29.6h-10.676v9.566h-5.438V15.833h5.438v9.2h10.676v-9.2h5.439z" fill="#000"/></g><defs><clipPath id="clip0"><path fill="#fff" d="M40.847 15h99.038v25H40.847z"/></clipPath></defs></svg>