<svg width="28" height="19" viewBox="0 0 28 19" fill="none" xmlns="http://www.w3.org/2000/svg">
<path d="M26.985 2.97295C26.6722 1.81048 25.7557 0.894161 24.5934 0.581133C22.4699 0 13.9759 0 13.9759 0C13.9759 0 5.48209 0 3.35858 0.55898C2.21868 0.871802 1.2798 1.81068 0.966976 2.97295C0.408203 5.09624 0.408203 9.49977 0.408203 9.49977C0.408203 9.49977 0.408203 13.9254 0.966976 16.0266C1.28001 17.1889 2.19632 18.1054 3.35879 18.4184C5.50445 18.9995 13.9761 18.9995 13.9761 18.9995C13.9761 18.9995 22.4699 18.9995 24.5934 18.4406C25.7559 18.1277 26.6722 17.2112 26.9852 16.0489C27.544 13.9254 27.544 9.52213 27.544 9.52213C27.544 9.52213 27.5664 5.09624 26.985 2.97295Z" fill="black"/>
<path d="M11.2715 13.567L18.3347 9.49882L11.2715 5.43066V13.567Z" fill="white"/>
</svg>
