<svg width="36" height="19" viewBox="0 0 36 19" fill="none" xmlns="http://www.w3.org/2000/svg">
<path d="M35.232 16.9468C35.1379 16.7969 34.556 15.5939 31.7558 13.1212C28.8243 10.532 29.2181 10.9524 32.749 6.47536C34.8995 3.74875 35.7592 2.08364 35.4901 1.37181C35.2342 0.693277 33.6525 0.872276 33.6525 0.872276L28.3934 0.901416C28.3934 0.901416 28.004 0.851462 27.713 1.01589C27.4308 1.17824 27.2492 1.55289 27.2492 1.55289C27.2492 1.55289 26.4157 3.66341 25.3044 5.45756C22.9614 9.2436 22.0229 9.44341 21.64 9.20822C20.7497 8.66082 20.9728 7.00611 20.9728 5.83221C20.9728 2.16273 21.5569 0.632917 19.833 0.237454C19.2599 0.106327 18.8398 0.0189088 17.3763 0.00433909C15.4993 -0.0143934 13.9089 0.0105832 13.0097 0.428941C12.4103 0.707847 11.9487 1.33018 12.2309 1.36556C12.5788 1.40927 13.3663 1.56746 13.7842 2.10862C14.3245 2.80588 14.3048 4.37525 14.3048 4.37525C14.3048 4.37525 14.6155 8.69412 13.5807 9.23111C12.8697 9.59952 11.8962 8.84814 9.80699 5.41177C8.73722 3.65301 7.92779 1.70691 7.92779 1.70691C7.92779 1.70691 7.77246 1.34475 7.49463 1.15118C7.15773 0.915986 6.6852 0.841056 6.6852 0.841056L1.68421 0.870195C1.68421 0.870195 0.933837 0.891009 0.658192 1.20114C0.413174 1.47796 0.638503 2.04826 0.638503 2.04826C0.638503 2.04826 4.55442 10.763 8.98662 15.1568C13.0535 19.1843 17.6694 18.92 17.6694 18.92H19.7608C19.7608 18.92 20.3931 18.8534 20.7147 18.5224C21.0122 18.2185 21.0013 17.6482 21.0013 17.6482C21.0013 17.6482 20.9597 14.9778 22.2635 14.5844C23.5477 14.1973 25.1972 17.1653 26.9451 18.308C28.2665 19.1718 29.2706 18.9824 29.2706 18.9824L33.9456 18.92C33.9456 18.92 36.3914 18.7763 35.232 16.9468Z" fill="black"/>
</svg>
