<svg width="31" height="31" viewBox="0 0 31 31" fill="none" xmlns="http://www.w3.org/2000/svg">
<circle cx="15.5" cy="15.5" r="15.5" fill="#053694"/>
<path d="M21.7729 8.22714C20.1367 6.59095 17.4747 6.59095 15.8385 8.22714L9.59031 14.4753C9.39748 14.6681 9.39748 14.9805 9.59031 15.1734C9.78314 15.3662 10.0955 15.3662 10.2884 15.1734L16.5365 8.92519C17.7494 7.71326 19.8619 7.71326 21.0748 8.92519C22.3258 10.1762 22.3258 12.212 21.0748 13.463L12.3501 22.286C11.6038 23.0322 10.3036 23.0322 9.55741 22.286C8.78753 21.5161 8.78753 20.2637 9.55741 19.4938L17.9331 11.0193C18.2127 10.7397 18.7006 10.7397 18.9802 11.0193C19.2689 11.3081 19.2689 11.7781 18.9802 12.0669L10.954 20.1918C10.7875 20.3583 10.7875 20.7234 10.954 20.8899C11.1468 21.0827 11.4592 21.0827 11.652 20.8899L19.6782 12.7649C20.3522 12.0909 20.3522 10.9952 19.6782 10.3213C19.0255 9.66855 17.8868 9.66951 17.2351 10.3213L8.85935 18.7957C7.71355 19.9415 7.71355 21.8382 8.85935 22.984C9.41906 23.5437 10.1629 23.8452 10.9539 23.8452C11.745 23.8452 12.4889 23.5437 13.0481 22.984L21.7729 14.161C23.409 12.5248 23.409 9.86329 21.7729 8.22714Z" fill="white"/>
</svg>
