<svg width="15" height="17" viewBox="0 0 15 17" fill="none" xmlns="http://www.w3.org/2000/svg">
<path d="M13.7729 1.22714C12.1367 -0.409047 9.4747 -0.409047 7.83852 1.22714L1.59031 7.47532C1.39748 7.66815 1.39748 7.98054 1.59031 8.17337C1.78314 8.3662 2.09553 8.3662 2.28836 8.17337L8.53654 1.92519C9.74943 0.713263 11.8619 0.713263 13.0748 1.92519C14.3258 3.17618 14.3258 5.21201 13.0748 6.463L4.35005 15.286C3.6038 16.0322 2.30363 16.0322 1.55741 15.286C0.787528 14.5161 0.787528 13.2637 1.55741 12.4938L9.93314 4.01933C10.2127 3.73974 10.7006 3.73974 10.9802 4.01933C11.2689 4.30806 11.2689 4.77812 10.9802 5.06689L2.95398 13.1918C2.7875 13.3583 2.7875 13.7234 2.95398 13.8899C3.14681 14.0827 3.4592 14.0827 3.65203 13.8899L11.6782 5.76491C12.3522 5.09094 12.3522 3.99521 11.6782 3.32127C11.0255 2.66855 9.88682 2.66951 9.23509 3.32127L0.859351 11.7957C-0.28645 12.9415 -0.28645 14.8382 0.859351 15.984C1.41906 16.5437 2.16288 16.8452 2.95394 16.8452C3.74501 16.8452 4.48889 16.5437 5.04811 15.984L13.7729 7.16102C15.409 5.52483 15.409 2.86329 13.7729 1.22714Z" fill="#053694"/>
</svg>
