<svg width="19" height="24" viewBox="0 0 19 24" fill="none" xmlns="http://www.w3.org/2000/svg">
<path d="M18.6077 19.0994C18.5372 19.0536 18.0059 18.6816 17.474 17.5564C16.4972 15.49 16.2921 12.5792 16.2921 10.5012C16.2921 10.4921 16.2919 10.4832 16.2916 10.4742C16.281 7.72781 14.6356 5.36034 12.2811 4.29811V2.67356C12.2811 1.19934 11.0832 0 9.61065 0H9.38934C7.91682 0 6.71885 1.19934 6.71885 2.67356V4.29802C4.35648 5.36367 2.70786 7.74323 2.70786 10.5012C2.70786 12.5792 2.50282 15.49 1.52597 17.5564C0.994099 18.6816 0.462881 19.0535 0.392252 19.0994C0.0948218 19.2369 -0.0518297 19.5548 0.0165951 19.8768C0.0856765 20.2021 0.38986 20.4263 0.722041 20.4263H5.87838C5.90718 22.4017 7.5202 24 9.50002 24C11.4798 24 13.0929 22.4017 13.1217 20.4263H18.278C18.6101 20.4263 18.9144 20.2021 18.9834 19.8768C19.0518 19.5548 18.9052 19.2369 18.6077 19.0994ZM8.12585 2.67356C8.12585 1.97602 8.69266 1.40855 9.38939 1.40855H9.6107C10.3074 1.40855 10.8742 1.97602 10.8742 2.67356V3.84155C10.4302 3.74981 9.97055 3.70153 9.49983 3.70153C9.02925 3.70153 8.56974 3.74977 8.12589 3.84141V2.67356H8.12585ZM9.50002 22.5915C8.29599 22.5915 7.31389 21.625 7.28533 20.4264H11.7147C11.6861 21.625 10.704 22.5915 9.50002 22.5915ZM12.3327 19.0177C12.3325 19.0177 2.32526 19.0177 2.32526 19.0177C2.44696 18.8282 2.57082 18.6135 2.69393 18.371C3.63678 16.5127 4.11486 13.8649 4.11486 10.5012C4.11486 7.5285 6.53055 5.11008 9.49978 5.11008C12.469 5.11008 14.8847 7.5285 14.8847 10.5035C14.8847 10.5122 14.8848 10.5208 14.8852 10.5294C14.8878 13.8797 15.3659 16.518 16.3061 18.371C16.4292 18.6136 16.5531 18.8282 16.6748 19.0177H12.3327Z" fill="#053694"/>
</svg>
