<svg width="12" height="19" viewBox="0 0 12 19" fill="none" xmlns="http://www.w3.org/2000/svg">
<path d="M4.76899 13.3829C3.29613 13.2293 1.96813 12.8666 0.831151 11.9773C0.690073 11.8667 0.544419 11.7601 0.415678 11.6365C-0.0819739 11.1585 -0.132117 10.6111 0.261667 10.047C0.598542 9.5643 1.16405 9.43516 1.75184 9.71234C1.86565 9.76606 1.9741 9.83312 2.07797 9.90515C4.19692 11.3611 7.10782 11.4013 9.23473 9.97062C9.44545 9.80904 9.67069 9.67732 9.93176 9.61006C10.4394 9.47973 10.9127 9.66618 11.1851 10.1103C11.4963 10.6175 11.4924 11.1126 11.1089 11.5064C10.5207 12.1101 9.81336 12.5468 9.02739 12.8517C8.28419 13.1398 7.47016 13.2848 6.66449 13.3812C6.78606 13.5135 6.84337 13.5785 6.91938 13.655C8.01338 14.7541 9.11215 15.8487 10.2026 16.9513C10.5741 17.327 10.6517 17.7928 10.4471 18.2297C10.2235 18.7073 9.72283 19.0215 9.23194 18.9878C8.92093 18.9664 8.67837 18.8116 8.46288 18.5945C7.6373 17.7637 6.79621 16.9483 5.98735 16.1018C5.75196 15.8557 5.63874 15.9022 5.431 16.116C4.60045 16.971 3.75637 17.8129 2.90732 18.65C2.52607 19.0259 2.0724 19.0935 1.63026 18.8788C1.16027 18.651 0.861197 18.1712 0.884279 17.6891C0.900197 17.363 1.06058 17.1138 1.28443 16.8904C2.36709 15.8093 3.44676 14.7255 4.52683 13.6426C4.59826 13.5706 4.66492 13.4942 4.76899 13.3829Z" fill="black"/>
<path d="M5.66629 9.61658C3.03874 9.60763 0.884174 7.42938 0.899495 4.79766C0.914618 2.13688 3.07058 -0.0073434 5.72399 1.89025e-05C8.38278 0.00718223 10.5169 2.18225 10.5035 4.87068C10.49 7.49704 8.3205 9.62574 5.66629 9.61658ZM8.05426 4.80402C8.04969 3.49731 7.00902 2.45704 5.70489 2.45585C4.38983 2.45445 3.3398 3.51363 3.34995 4.83228C3.3597 6.13401 4.40933 7.16692 5.71703 7.16215C7.02076 7.15757 8.05864 6.11053 8.05426 4.80402Z" fill="black"/>
</svg>
