<svg width="55" height="55" viewBox="0 0 55 55" fill="none" xmlns="http://www.w3.org/2000/svg">
<circle cx="27.5" cy="27.5" r="16.5" fill="#053694"/>
<path d="M34.501 23.2651C34.2015 22.9514 33.788 22.7661 33.3175 22.7661H30.9506V22.7376C30.9506 22.3811 30.808 22.0389 30.5656 21.8108C30.3232 21.5684 29.9952 21.4258 29.6388 21.4258H25.3612C24.9905 21.4258 24.6625 21.5684 24.4202 21.8108C24.1778 22.0532 24.0352 22.3811 24.0352 22.7376V22.7661H21.6825C21.212 22.7661 20.7985 22.9514 20.499 23.2651C20.1996 23.5646 20 23.9923 20 24.4486V31.5494C20 32.0199 20.1854 32.4334 20.499 32.7328C20.7985 33.0322 21.2262 33.2319 21.6825 33.2319H33.3175C33.788 33.2319 34.2015 33.0465 34.501 32.7328C34.8004 32.4334 35 32.0056 35 31.5494V24.4486C35 23.9781 34.8146 23.5646 34.501 23.2651ZM34.2586 31.5494H34.2443C34.2443 31.806 34.1445 32.0341 33.9734 32.2053C33.8023 32.3764 33.5741 32.4762 33.3175 32.4762H21.6825C21.4259 32.4762 21.1977 32.3764 21.0266 32.2053C20.8555 32.0341 20.7557 31.806 20.7557 31.5494V24.4486C20.7557 24.1919 20.8555 23.9638 21.0266 23.7927C21.1977 23.6216 21.4259 23.5218 21.6825 23.5218H24.4344C24.6483 23.5218 24.8194 23.3507 24.8194 23.1368V22.7233C24.8194 22.5665 24.8764 22.4239 24.9762 22.3241C25.076 22.2243 25.2186 22.1672 25.3755 22.1672H29.6388C29.7956 22.1672 29.9382 22.2243 30.038 22.3241C30.1378 22.4239 30.1949 22.5665 30.1949 22.7233V23.1368C30.1949 23.3507 30.366 23.5218 30.5798 23.5218H33.3317C33.5884 23.5218 33.8165 23.6216 33.9876 23.7927C34.1587 23.9638 34.2586 24.1919 34.2586 24.4486V31.5494Z" fill="white"/>
<path d="M27.4998 24.4902C26.5302 24.4902 25.6462 24.8895 25.0188 25.5169C24.3772 26.1585 23.9922 27.0283 23.9922 27.9978C23.9922 28.9674 24.3914 29.8515 25.0188 30.4788C25.6604 31.1205 26.5302 31.5054 27.4998 31.5054C28.4694 31.5054 29.3534 31.1062 29.9808 30.4788C30.6224 29.8372 31.0074 28.9674 31.0074 27.9978C31.0074 27.0283 30.6082 26.1442 29.9808 25.5169C29.3534 24.8895 28.4694 24.4902 27.4998 24.4902ZM29.439 29.9513C28.9399 30.4361 28.2555 30.7497 27.4998 30.7497C26.7441 30.7497 26.0597 30.4361 25.5606 29.9513C25.0616 29.4522 24.7621 28.7678 24.7621 28.0121C24.7621 27.2564 25.0758 26.572 25.5606 26.0729C26.0597 25.5739 26.7441 25.2745 27.4998 25.2745C28.2555 25.2745 28.9399 25.5881 29.439 26.0729C29.938 26.572 30.2374 27.2564 30.2374 28.0121C30.2517 28.7678 29.938 29.4522 29.439 29.9513Z" fill="white"/>
<path d="M32.5776 25.8739C32.9634 25.8739 33.2762 25.5611 33.2762 25.1752C33.2762 24.7894 32.9634 24.4766 32.5776 24.4766C32.1917 24.4766 31.8789 24.7894 31.8789 25.1752C31.8789 25.5611 32.1917 25.8739 32.5776 25.8739Z" fill="white"/>
<circle opacity="0.1" cx="27.5" cy="27.5" r="27.5" fill="#053694"/>
</svg>
