<svg width="52" height="42" viewBox="0 0 52 42" fill="none" xmlns="http://www.w3.org/2000/svg">
<path d="M37.4047 0H2.89671C1.2994 0 0 1.2994 0 2.89661V23.5995C0 25.1967 1.2994 26.4962 2.89671 26.4962H5.13432V34.2034C5.13432 34.6941 5.42991 35.1367 5.88344 35.3246C6.03354 35.3868 6.19129 35.417 6.34762 35.417C6.6635 35.417 6.97376 35.2936 7.20595 35.0615L15.7713 26.4963H17.4898C18.16 26.4963 18.7033 25.953 18.7033 25.2828C18.7033 24.6124 18.1598 24.0692 17.4898 24.0692C17.4898 24.0692 15.2101 24.0708 15.1862 24.0732C14.9037 24.0924 14.6264 24.2087 14.4104 24.4246L7.56132 31.2737C7.56132 31.2737 7.55921 25.206 7.55529 25.1746C7.50054 24.5551 6.9809 24.0692 6.34722 24.0692H2.89671C2.63769 24.0692 2.4271 23.8585 2.4271 23.5996V2.89661C2.4271 2.63759 2.63779 2.427 2.89671 2.427H37.4047C37.6637 2.427 37.8743 2.63769 37.8743 2.89661V10.8394C37.8743 11.5097 38.4178 12.0529 39.0878 12.0529C39.7579 12.0529 40.3013 11.5097 40.3013 10.8394V2.89661C40.3013 1.2994 39.0019 0 37.4047 0Z" fill="#7E7E7E"/>
<path d="M48.5439 14.8428H24.3889C22.7917 14.8428 21.4922 16.1422 21.4922 17.7395V31.8628C21.4922 33.46 22.7916 34.7595 24.3889 34.7595H39.5113L45.6381 40.8863C45.8703 41.1185 46.1807 41.2418 46.4965 41.2418C46.6528 41.2418 46.8105 41.2115 46.9606 41.1494C47.414 40.9615 47.7098 40.5191 47.7098 40.0282V34.7594H48.5438C50.141 34.7594 51.4405 33.46 51.4405 31.8627V17.7394C51.4406 16.1422 50.1412 14.8428 48.5439 14.8428ZM49.0136 31.8628C49.0136 32.1217 48.8029 32.3324 48.544 32.3324H46.4968C45.8582 32.3324 45.3359 32.826 45.288 33.4524C45.2849 33.4789 45.2829 37.0985 45.2829 37.0985L40.8768 32.6923C40.8721 32.6877 40.8673 32.6834 40.8627 32.6788C40.8454 32.6619 40.829 32.6472 40.8136 32.6341C40.6 32.4468 40.3209 32.3323 40.0147 32.3323H24.3889C24.1299 32.3323 23.9193 32.1216 23.9193 31.8627V17.7394C23.9193 17.4804 24.13 17.2698 24.3889 17.2698H48.544C48.8029 17.2698 49.0136 17.4805 49.0136 17.7394V31.8628Z" fill="#7E7E7E"/>
<path d="M36.4674 23.5879C35.7976 23.5879 35.2539 24.1315 35.2539 24.8014C35.2539 25.4712 35.7976 26.0149 36.4674 26.0149C37.1374 26.0149 37.6809 25.4712 37.6809 24.8014C37.6809 24.1315 37.1373 23.5879 36.4674 23.5879Z" fill="#7E7E7E"/>
<path d="M31.194 8.02344H9.10803C8.43788 8.02344 7.89453 8.56669 7.89453 9.23694C7.89453 9.90719 8.43798 10.4504 9.10803 10.4504H31.194C31.8641 10.4504 32.4075 9.90719 32.4075 9.23694C32.4075 8.56669 31.8641 8.02344 31.194 8.02344Z" fill="#7E7E7E"/>
<path d="M17.4899 16.0459H9.10803C8.43788 16.0459 7.89453 16.5892 7.89453 17.2594C7.89453 17.9296 8.43798 18.4729 9.10803 18.4729H17.4899C18.1602 18.4729 18.7034 17.9296 18.7034 17.2594C18.7034 16.5892 18.1601 16.0459 17.4899 16.0459Z" fill="#7E7E7E"/>
<path d="M30.8307 23.5879C30.1609 23.5879 29.6172 24.1315 29.6172 24.8014C29.6172 25.4712 30.1609 26.0149 30.8307 26.0149C31.5006 26.0149 32.0442 25.4712 32.0442 24.8014C32.0442 24.1315 31.5006 23.5879 30.8307 23.5879Z" fill="#7E7E7E"/>
<path d="M42.1041 23.5879C41.4343 23.5879 40.8906 24.1315 40.8906 24.8014C40.8906 25.4712 41.4343 26.0149 42.1041 26.0149C42.7741 26.0149 43.3176 25.4712 43.3176 24.8014C43.3176 24.1315 42.774 23.5879 42.1041 23.5879Z" fill="#7E7E7E"/>
</svg>
