<svg width="140" height="55" viewBox="0 0 140 55" fill="none" xmlns="http://www.w3.org/2000/svg">
  <path d="M23.8424 10.988L11.9214 0L0.000335218 10.988L11.9214 21.9761L23.8424 10.988Z" fill="#A086BE"></path>
  <path d="M23.8444 21.9768L11.9233 10.9888L0.0022625 21.9768L11.9233 32.9648L23.8444 21.9768Z" fill="#97C45D"></path>
  <path d="M23.8468 32.9646L11.9258 21.9766L0.00472439 32.9646L11.9258 43.9526L23.8468 32.9646Z" fill="#FCB13B"></path>
  <path d="M23.8468 44.012L11.9258 33.0239L0.00472791 44.012L11.9258 55L23.8468 44.012Z" fill="#A32529"></path>
  <path d="M17.8626 38.4829L11.9316 33.0161L6.00068 38.4829L11.9316 43.9496L17.8626 38.4829Z" fill="#CE2027"></path>
  <path d="M17.8853 27.4569L11.9248 21.9629L5.96429 27.4569L11.9248 32.951L17.8853 27.4569Z" fill="#EFD43C"></path>
  <path d="M17.8592 16.4463L11.9282 10.9795L5.99728 16.4462L11.9282 21.913L17.8592 16.4463Z" fill="#88B8C0"></path>
  <g clip-path="url(#clip0)">
    <path d="M61.7285 20.2331H54.2083V39.1664H48.8367V20.2331H41.3501V15.8331H61.7285V20.2331ZM75.3159 15.8331C77.3974 15.8331 79.1991 16.1775 80.721 16.8664C82.2654 17.5553 83.4516 18.5331 84.2797 19.7998C85.1078 21.0664 85.5219 22.5664 85.5219 24.2998C85.5219 26.0109 85.1078 27.5109 84.2797 28.7998C83.4516 30.0664 82.2654 31.0442 80.721 31.7331C79.1991 32.3998 77.3974 32.7331 75.3159 32.7331H70.5822V39.1664H65.1435V15.8331H75.3159ZM75.0138 28.3331C76.6476 28.3331 77.8898 27.9887 78.7403 27.2998C79.5908 26.5887 80.0161 25.5887 80.0161 24.2998C80.0161 22.9887 79.5908 21.9887 78.7403 21.2998C77.8898 20.5887 76.6476 20.2331 75.0138 20.2331H70.5822V28.3331H75.0138ZM100.651 39.5664C98.2111 39.5664 96.0065 39.0442 94.037 37.9998C92.0898 36.9554 90.5566 35.522 89.4376 33.6998C88.3408 31.8554 87.7925 29.7887 87.7925 27.4998C87.7925 25.2109 88.3408 23.1553 89.4376 21.3331C90.5566 19.4887 92.0898 18.0442 94.037 16.9998C96.0065 15.9553 98.2111 15.4331 100.651 15.4331C103.09 15.4331 105.284 15.9553 107.231 16.9998C109.178 18.0442 110.711 19.4887 111.83 21.3331C112.949 23.1553 113.509 25.2109 113.509 27.4998C113.509 29.7887 112.949 31.8554 111.83 33.6998C110.711 35.522 109.178 36.9554 107.231 37.9998C105.284 39.0442 103.09 39.5664 100.651 39.5664ZM100.651 34.9664C102.038 34.9664 103.292 34.6554 104.411 34.0331C105.53 33.3887 106.403 32.4998 107.029 31.3664C107.679 30.2331 108.003 28.9442 108.003 27.4998C108.003 26.0554 107.679 24.7664 107.029 23.6331C106.403 22.4998 105.53 21.622 104.411 20.9998C103.292 20.3553 102.038 20.0331 100.651 20.0331C99.263 20.0331 98.0097 20.3553 96.8906 20.9998C95.7715 21.622 94.8874 22.4998 94.2384 23.6331C93.6117 24.7664 93.2984 26.0554 93.2984 27.4998C93.2984 28.9442 93.6117 30.2331 94.2384 31.3664C94.8874 32.4998 95.7715 33.3887 96.8906 34.0331C98.0097 34.6554 99.263 34.9664 100.651 34.9664ZM139.252 15.8331V39.1664H133.813V29.5998H123.137V39.1664H117.699V15.8331H123.137V25.0331H133.813V15.8331H139.252Z" fill="black"></path>
  </g>
  <defs>
    <clipPath id="clip0">
      <rect x="40.8467" y="15" width="99.0385" height="25" fill="white"></rect>
    </clipPath>
  </defs>
</svg>
